<?xml version="1.0" standalone="no"?>
<!DOCTYPE svg PUBLIC "-//W3C//DTD SVG 20010904//EN" "http://www.w3.org/TR/2001/REC-SVG-20010904/DTD/svg10.dtd">
<svg version="1.0" xmlns="http://www.w3.org/2000/svg" width="180.000000pt" height="180.000000pt"
  viewBox="0 0 180.000000 180.000000" preserveAspectRatio="xMidYMid meet">

  <g transform="translate(0.000000,180.000000) scale(0.100000,-0.100000)" fill="#000000" stroke="none">
    <path d="M105 1781 c-48 -22 -69 -44 -90 -94 -13 -32 -15 -134 -15 -789 0
-709 2 -755 19 -793 22 -48 44 -69 94 -90 32 -13 134 -15 789 -15 709 0 755 2
793 19 48 22 69 44 90 94 13 32 15 134 15 787 0 653 -2 755 -15 787 -21 50
-42 72 -90 94 -38 18 -84 19 -795 19 -711 0 -757 -1 -795 -19z m1350 -480 c41
-23 62 -79 43 -118 -26 -54 -118 -36 -118 23 0 28 36 64 64 64 44 1 -28 29
-75 30 -84 0 -118 -65 -119 -227 l0 -83 75 0 c43 0 75 -4 75 -10 0 -6 -32 -10
-75 -10 l-75 0 0 -240 0 -240 65 0 c37 0 65 -4 65 -10 0 -6 -62 -10 -165 -10
-103 0 -165 4 -165 10 0 6 23 10 50 10 l50 0 0 240 0 240 -51 0 c-31 0 -48 4
-44 10 3 6 26 10 51 10 l44 0 0 58 c0 71 20 141 54 191 57 82 167 109 251 62z
m-475 -116 c0 -77 -4 -125 -10 -125 -5 0 -10 19 -10 43 0 65 -19 118 -55 154
-32 32 -34 33 -124 33 l-91 0 0 -400 0 -400 60 0 c33 0 60 -4 60 -10 0 -6 -65
-10 -175 -10 -110 0 -175 4 -175 10 0 6 27 10 60 10 l60 0 0 400 0 400 -80 0
c-54 0 -91 -5 -111 -16 -41 -21 -69 -84 -69 -156 0 -45 -3 -58 -15 -58 -13 0
-15 21 -15 125 l0 125 345 0 345 0 0 -125z" />
  </g>
</svg>